<?xml version="1.0" encoding="UTF-8" standalone="no"?>
<svg height="24" viewBox="0 0 24 24" width="24" version="1.1">
  <path
     d="m 24,17.010593 0,4.555085 q 0,0.569385 -0.375,0.967955 -0.375,0.39857 -0.910714,0.39857 l -4.285715,0 q -0.535714,0 -0.910714,-0.39857 -0.375,-0.39857 -0.375,-0.967955 l 0,-4.555085 q 0,-0.569386 0.375,-0.967956 0.375,-0.39857 0.910714,-0.39857 l 1.285715,0 0,-2.73305 -6.857143,0 0,2.73305 1.285714,0 q 0.535714,0 0.910714,0.39857 0.375,0.39857 0.375,0.967956 l 0,4.555085 q 0,0.569385 -0.375,0.967955 -0.375,0.39857 -0.910714,0.39857 l -4.2857141,0 q -0.5357143,0 -0.9107143,-0.39857 -0.375,-0.39857 -0.375,-0.967955 l 0,-4.555085 q 0,-0.569386 0.375,-0.967956 0.375,-0.39857 0.9107143,-0.39857 l 1.2857141,0 0,-2.73305 -6.8571427,0 0,2.73305 1.2857143,0 q 0.5357143,0 0.9107143,0.39857 0.375,0.39857 0.375,0.967956 l 0,4.555085 q 0,0.569385 -0.375,0.967955 -0.375,0.39857 -0.9107143,0.39857 l -4.2857143,0 Q 0.75,22.932203 0.375,22.533633 0,22.135063 0,21.565678 l 0,-4.555085 q 0,-0.569386 0.375,-0.967956 0.375,-0.39857 0.9107143,-0.39857 l 1.2857143,0 0,-2.73305 q 0,-0.740202 0.5089285,-1.281118 0.5089286,-0.540916 1.2053572,-0.540916 l 6.8571427,0 0,-2.7330508 -1.2857141,0 q -0.5357143,0 -0.9107143,-0.3985699 -0.375,-0.3985699 -0.375,-0.9679555 l 0,-4.5550847 q 0,-0.5693856 0.375,-0.9679556 0.375,-0.3985699 0.9107143,-0.3985699 l 4.2857141,0 q 0.535714,0 0.910714,0.3985699 0.375,0.39857 0.375,0.9679556 l 0,4.5550847 q 0,0.5693856 -0.375,0.9679555 -0.375,0.3985699 -0.910714,0.3985699 l -1.285714,0 0,2.7330508 6.857143,0 q 0.696428,0 1.205357,0.540916 0.508928,0.540916 0.508928,1.281118 l 0,2.73305 1.285715,0 q 0.535714,0 0.910714,0.39857 Q 24,16.441207 24,17.010593 Z"/>
</svg>
