<?xml version="1.0" encoding="UTF-8" standalone="no"?>
<svg height="24" viewBox="0 0 24 24" width="24" version="1.1">
  <path
     d="M 1.50084,6 C 1.22423,6 1,6.21404 1,6.50468 L 1,7.49532 C 1,7.77404 1.21774,8 1.50084,8 L 22.49916,8 C 22.77577,8 23,7.78596 23,7.49532 L 23,6.50468 C 23,6.22595 22.78226,6 22.49916,6 L 1.50084,6 Z m 0,5 C 1.22423,11 1,11.21404 1,11.50468 l 0,0.99064 C 1,12.77404 1.21774,13 1.50084,13 l 20.99832,0 C 22.77577,13 23,12.78596 23,12.49532 l 0,-0.99064 C 23,11.22595 22.78226,11 22.49916,11 L 1.50084,11 Z m 0,5 C 1.22423,16 1,16.21404 1,16.50468 l 0,0.99064 C 1,17.77404 1.21774,18 1.50084,18 l 20.99832,0 C 22.77577,18 23,17.78596 23,17.49532 l 0,-0.99064 C 23,16.22595 22.78226,16 22.49916,16 L 1.50084,16 Z"/>
</svg>
