<?xml version="1.0" encoding="UTF-8" standalone="no"?>
<svg height="24" viewBox="0 0 24 24" width="24" version="1.1">
  <path
     d="m 18.857143,14.286136 0,4.57227 q 0,1.700314 -1.131697,2.907679 Q 16.59375,22.973451 15,22.973451 l -11.1428571,0 q -1.59375,0 -2.7254465,-1.207366 Q 0,20.55872 0,18.858406 L 0,6.9705013 Q 0,5.2701879 1.1316964,4.0628225 2.2633929,2.8554571 3.8571429,2.8554571 l 9.4285711,0 q 0.1875,0 0.308036,0.1285951 0.120536,0.1285951 0.120536,0.328632 l 0,0.9144543 q 0,0.2000368 -0.120536,0.328632 -0.120536,0.1285951 -0.308036,0.1285951 l -9.4285711,0 q -0.8839286,0 -1.5133929,0.6715524 -0.6294643,0.6715523 -0.6294643,1.6145833 l 0,11.8879047 q 0,0.943032 0.6294643,1.614585 0.6294643,0.671551 1.5133929,0.671551 l 11.1428571,0 q 0.883929,0 1.513393,-0.671551 0.629464,-0.671553 0.629464,-1.614585 l 0,-4.57227 q 0,-0.200037 0.120536,-0.328632 0.120536,-0.128596 0.308036,-0.128596 l 0.857142,0 q 0.1875,0 0.308036,0.128596 0.120536,0.128595 0.120536,0.328632 z M 24,1.9410028 24,9.2566375 q 0,0.371497 -0.254464,0.642975 -0.254465,0.2714785 -0.602679,0.2714785 -0.348214,0 -0.602678,-0.2714785 l -2.357143,-2.514749 -8.732143,9.3160025 q -0.133929,0.142884 -0.308036,0.142884 -0.174107,0 -0.308036,-0.142884 L 9.3080357,15.071995 q -0.1339286,-0.142883 -0.1339286,-0.328632 0,-0.185748 0.1339286,-0.328633 L 18.040179,5.0987277 15.683036,2.5839784 q -0.254465,-0.2714786 -0.254465,-0.6429756 0,-0.3714971 0.254465,-0.6429757 0.254464,-0.2714786 0.602678,-0.2714786 l 6.857143,0 q 0.348214,0 0.602679,0.2714786 Q 24,1.5695057 24,1.9410028 Z"/>
</svg>
