<svg xmlns:xlink="http://www.w3.org/1999/xlink" width="56" xmlns="http://www.w3.org/2000/svg" height="55" id="screenshot-d5dc62f2-425f-11ed-a456-3de3b59e4b74" viewBox="-117 898 56 55" style="-webkit-print-color-adjust: exact;" fill="none" version="1.1"><g id="shape-d5dc62f2-425f-11ed-a456-3de3b59e4b74"><g class="fills" id="fills-d5dc62f2-425f-11ed-a456-3de3b59e4b74"><path rx="0" ry="0" d="M-89.000,898.000C-96.426,898.000,-103.548,900.900,-108.799,906.050C-114.050,911.210,-117.000,918.210,-117.000,925.500C-117.000,932.790,-114.050,939.790,-108.799,944.950C-103.548,950.100,-96.426,953.000,-89.000,953.000C-81.574,953.000,-74.452,950.100,-69.201,944.950C-63.951,939.790,-61.000,932.790,-61.000,925.500C-61.000,918.210,-63.951,911.210,-69.201,906.050C-74.452,900.900,-81.574,898.000,-89.000,898.000ZL-89.000,898.000ZZM-81.620,947.920L-81.837,947.920C-82.000,947.930,-82.163,947.900,-82.316,947.850C-82.470,947.790,-82.610,947.710,-82.728,947.600C-82.838,947.480,-82.923,947.350,-82.979,947.200C-83.035,947.060,-83.061,946.900,-83.055,946.750L-83.055,943.520C-83.041,942.450,-83.032,941.370,-83.032,940.280C-83.036,939.480,-83.154,938.690,-83.384,937.920C-83.601,937.150,-84.041,936.450,-84.648,935.920C-83.022,935.760,-81.423,935.400,-79.894,934.840C-78.602,934.360,-77.435,933.600,-76.472,932.630C-75.523,931.650,-74.816,930.470,-74.407,929.180C-73.911,927.600,-73.675,925.950,-73.707,924.300C-73.699,923.140,-73.904,922.000,-74.315,920.910C-74.731,919.820,-75.361,918.820,-76.170,917.970C-75.995,917.540,-75.868,917.090,-75.791,916.640C-75.714,916.180,-75.674,915.720,-75.674,915.250C-75.674,914.660,-75.745,914.060,-75.884,913.480C-76.012,912.890,-76.184,912.300,-76.400,911.730C-76.482,911.700,-76.571,911.690,-76.660,911.690L-76.916,911.690C-77.453,911.690,-77.980,911.780,-78.488,911.940C-79.049,912.100,-79.597,912.300,-80.129,912.540C-80.658,912.770,-81.173,913.030,-81.671,913.320C-82.172,913.620,-82.616,913.900,-83.008,914.150C-86.933,913.080,-91.083,913.080,-95.008,914.150C-95.446,913.870,-95.892,913.590,-96.343,913.320C-96.849,913.030,-97.373,912.770,-97.911,912.540C-98.442,912.300,-98.992,912.100,-99.556,911.940C-100.055,911.780,-100.576,911.690,-101.101,911.690L-101.358,911.690C-101.445,911.690,-101.533,911.700,-101.614,911.730C-101.834,912.300,-102.013,912.890,-102.151,913.480C-102.277,914.060,-102.337,914.660,-102.340,915.250C-102.340,915.720,-102.300,916.180,-102.221,916.640C-102.143,917.090,-102.020,917.540,-101.848,917.970C-102.653,918.830,-103.281,919.830,-103.696,920.920C-104.107,922.000,-104.315,923.140,-104.309,924.300C-104.342,925.940,-104.111,927.580,-103.627,929.160C-103.205,930.450,-102.501,931.630,-101.566,932.630C-100.597,933.600,-99.430,934.350,-98.144,934.840C-96.620,935.410,-95.024,935.780,-93.401,935.930C-93.854,936.340,-94.214,936.830,-94.456,937.380C-94.685,937.930,-94.842,938.500,-94.922,939.090C-95.779,939.490,-96.714,939.700,-97.664,939.710C-98.546,939.740,-99.415,939.500,-100.149,939.020C-100.852,938.510,-101.448,937.870,-101.904,937.130C-102.107,936.820,-102.335,936.530,-102.585,936.250C-102.849,935.970,-103.139,935.700,-103.453,935.470C-103.762,935.240,-104.101,935.060,-104.461,934.920C-104.815,934.770,-105.197,934.690,-105.583,934.690C-105.677,934.690,-105.770,934.700,-105.863,934.710C-105.991,934.710,-106.117,934.730,-106.242,934.760C-106.350,934.780,-106.452,934.830,-106.544,934.890C-106.586,934.920,-106.622,934.950,-106.646,934.990C-106.671,935.030,-106.684,935.080,-106.685,935.120C-106.675,935.230,-106.640,935.340,-106.584,935.440C-106.527,935.530,-106.450,935.610,-106.358,935.680C-106.141,935.850,-105.961,935.980,-105.817,936.070L-105.746,936.120C-105.436,936.350,-105.138,936.610,-104.855,936.880C-104.593,937.100,-104.358,937.360,-104.155,937.640C-103.945,937.910,-103.763,938.200,-103.616,938.510C-103.446,938.820,-103.267,939.170,-103.077,939.570C-102.639,940.660,-101.859,941.580,-100.851,942.190C-99.794,942.750,-98.609,943.030,-97.407,943.000C-97.002,943.000,-96.593,942.980,-96.189,942.930C-95.788,942.870,-95.389,942.800,-94.988,942.720L-94.988,946.720C-94.981,946.880,-95.008,947.040,-95.068,947.190C-95.128,947.340,-95.220,947.470,-95.337,947.590C-95.454,947.700,-95.595,947.790,-95.749,947.840C-95.903,947.900,-96.067,947.920,-96.231,947.910L-96.376,947.910C-101.817,946.180,-106.451,942.610,-109.446,937.820C-112.439,933.040,-113.596,927.360,-112.706,921.810C-111.816,916.260,-108.939,911.210,-104.592,907.560C-100.246,903.910,-94.716,901.910,-88.998,901.910C-83.279,901.910,-77.749,903.910,-73.403,907.560C-69.057,911.210,-66.179,916.260,-65.290,921.810C-64.400,927.360,-65.556,933.040,-68.550,937.820C-71.543,942.610,-76.179,946.180,-81.620,947.920ZL-81.620,947.920ZL-81.620,947.920ZZ" style="fill: rgb(17, 17, 17);"/></g></g></svg>