<svg xmlns:xlink="http://www.w3.org/1999/xlink" width="76" xmlns="http://www.w3.org/2000/svg" height="75" id="screenshot-aaccd527-2a15-80bc-8002-388bf8f5833a" viewBox="-2.5 -2.5 76 75" style="-webkit-print-color-adjust: exact;" fill="none" version="1.1"><g id="shape-aaccd527-2a15-80bc-8002-388bf8f5833a" rx="0" ry="0"><g id="shape-a3e7bb67-40d8-11ed-bfd9-97f122658f79"><g class="fills" id="fills-a3e7bb67-40d8-11ed-bfd9-97f122658f79"><path fill="none" stroke-linecap="round" stroke-linejoin="round" rx="0" ry="0" d="M50.949,62.131L48.855,44.201C48.558,41.658,47.403,39.325,45.608,37.633C43.812,35.931,41.500,35.000,39.106,35.000L31.891,35.000C29.498,35.000,27.188,35.941,25.393,37.633C23.600,39.325,22.446,41.658,22.149,44.201L20.050,62.131C19.935,63.112,20.018,64.113,20.292,65.064C20.566,66.015,21.025,66.886,21.641,67.627C22.256,68.378,23.012,68.969,23.858,69.379C24.705,69.790,25.624,70.000,26.552,70.000L44.452,70.000C45.380,70.000,46.298,69.780,47.144,69.379C47.991,68.969,48.747,68.368,49.361,67.627C49.975,66.886,50.435,66.005,50.709,65.064C50.983,64.113,51.065,63.112,50.949,62.131ZL50.949,62.131ZZ" style="fill: none;"/></g><g id="strokes-a3e7bb67-40d8-11ed-bfd9-97f122658f79" class="strokes"><g class="stroke-shape"><path stroke-linecap="round" stroke-linejoin="round" rx="0" ry="0" d="M50.949,62.131L48.855,44.201C48.558,41.658,47.403,39.325,45.608,37.633C43.812,35.931,41.500,35.000,39.106,35.000L31.891,35.000C29.498,35.000,27.188,35.941,25.393,37.633C23.600,39.325,22.446,41.658,22.149,44.201L20.050,62.131C19.935,63.112,20.018,64.113,20.292,65.064C20.566,66.015,21.025,66.886,21.641,67.627C22.256,68.378,23.012,68.969,23.858,69.379C24.705,69.790,25.624,70.000,26.552,70.000L44.452,70.000C45.380,70.000,46.298,69.780,47.144,69.379C47.991,68.969,48.747,68.368,49.361,67.627C49.975,66.886,50.435,66.005,50.709,65.064C50.983,64.113,51.065,63.112,50.949,62.131ZL50.949,62.131ZZ" style="fill: none; stroke-width: 5; stroke: rgb(255, 199, 0);"/></g></g></g><g id="shape-a3e7bb68-40d8-11ed-bfd9-97f122658f79"><g class="fills" id="fills-a3e7bb68-40d8-11ed-bfd9-97f122658f79"><path fill="none" rx="0" ry="0" d="M36.000,21.000C41.523,21.000,46.000,16.303,46.000,10.495C46.000,4.697,41.523,0.000,36.000,0.000C30.477,0.000,26.000,4.697,26.000,10.495C26.000,16.303,30.477,21.000,36.000,21.000ZZ" style="fill: none;"/></g><g id="strokes-a3e7bb68-40d8-11ed-bfd9-97f122658f79" class="strokes"><g class="stroke-shape"><path rx="0" ry="0" d="M36.000,21.000C41.523,21.000,46.000,16.303,46.000,10.495C46.000,4.697,41.523,0.000,36.000,0.000C30.477,0.000,26.000,4.697,26.000,10.495C26.000,16.303,30.477,21.000,36.000,21.000ZZ" style="fill: none; stroke-width: 5; stroke: rgb(255, 199, 0);"/></g></g></g><g id="shape-a3e7bb69-40d8-11ed-bfd9-97f122658f79"><g class="fills" id="fills-a3e7bb69-40d8-11ed-bfd9-97f122658f79"><path fill="none" rx="0" ry="0" d="M9.500,31.000C13.090,31.000,16.000,27.866,16.000,24.000C16.000,20.134,13.090,17.000,9.500,17.000C5.910,17.000,3.000,20.134,3.000,24.000C3.000,27.866,5.910,31.000,9.500,31.000ZZ" style="fill: none;"/></g><g id="strokes-a3e7bb69-40d8-11ed-bfd9-97f122658f79" class="strokes"><g class="stroke-shape"><path rx="0" ry="0" d="M9.500,31.000C13.090,31.000,16.000,27.866,16.000,24.000C16.000,20.134,13.090,17.000,9.500,17.000C5.910,17.000,3.000,20.134,3.000,24.000C3.000,27.866,5.910,31.000,9.500,31.000ZZ" style="fill: none; stroke-width: 5; stroke: rgb(255, 199, 0);"/></g></g></g><g id="shape-a3e7bb6a-40d8-11ed-bfd9-97f122658f79"><g class="fills" id="fills-a3e7bb6a-40d8-11ed-bfd9-97f122658f79"><path fill="none" rx="0" ry="0" d="M62.500,31.000C66.089,31.000,69.000,27.866,69.000,24.000C69.000,20.134,66.089,17.000,62.500,17.000C58.910,17.000,56.000,20.134,56.000,24.000C56.000,27.866,58.910,31.000,62.500,31.000ZZ" style="fill: none;"/></g><g id="strokes-a3e7bb6a-40d8-11ed-bfd9-97f122658f79" class="strokes"><g class="stroke-shape"><path rx="0" ry="0" d="M62.500,31.000C66.089,31.000,69.000,27.866,69.000,24.000C69.000,20.134,66.089,17.000,62.500,17.000C58.910,17.000,56.000,20.134,56.000,24.000C56.000,27.866,58.910,31.000,62.500,31.000ZZ" style="fill: none; stroke-width: 5; stroke: rgb(255, 199, 0);"/></g></g></g><g id="shape-a3e7bb6b-40d8-11ed-bfd9-97f122658f79"><g class="fills" id="fills-a3e7bb6b-40d8-11ed-bfd9-97f122658f79"><path fill="none" stroke-linecap="round" stroke-linejoin="round" rx="0" ry="0" d="M8.806,42.000L7.785,42.000C6.206,42.000,4.677,42.591,3.471,43.662C2.265,44.734,1.462,46.216,1.202,47.848L0.090,54.848C-0.068,55.860,-0.018,56.881,0.240,57.863C0.497,58.844,0.954,59.755,1.582,60.526C2.208,61.308,2.988,61.928,3.868,62.359C4.747,62.780,5.705,63.000,6.674,63.000L18.816,63.000M62.194,42.000L63.215,42.000C64.795,42.000,66.323,42.591,67.529,43.662C68.734,44.734,69.538,46.216,69.799,47.848L70.909,54.848C71.068,55.860,71.018,56.881,70.761,57.863C70.503,58.844,70.045,59.755,69.419,60.526C68.792,61.308,68.012,61.928,67.132,62.359C66.253,62.780,65.295,63.000,64.326,63.000L52.184,63.000" style="fill: none;"/></g><g id="strokes-a3e7bb6b-40d8-11ed-bfd9-97f122658f79" class="strokes"><g class="stroke-shape"><path stroke-linecap="round" stroke-linejoin="round" rx="0" ry="0" d="M8.806,42.000L7.785,42.000C6.206,42.000,4.677,42.591,3.471,43.662C2.265,44.734,1.462,46.216,1.202,47.848L0.090,54.848C-0.068,55.860,-0.018,56.881,0.240,57.863C0.497,58.844,0.954,59.755,1.582,60.526C2.208,61.308,2.988,61.928,3.868,62.359C4.747,62.780,5.705,63.000,6.674,63.000L18.816,63.000M62.194,42.000L63.215,42.000C64.795,42.000,66.323,42.591,67.529,43.662C68.734,44.734,69.538,46.216,69.799,47.848L70.909,54.848C71.068,55.860,71.018,56.881,70.761,57.863C70.503,58.844,70.045,59.755,69.419,60.526C68.792,61.308,68.012,61.928,67.132,62.359C66.253,62.780,65.295,63.000,64.326,63.000L52.184,63.000" style="fill: none; stroke-width: 5; stroke: rgb(255, 199, 0);"/></g></g></g></g></svg>