<svg xmlns:xlink="http://www.w3.org/1999/xlink" width="45" xmlns="http://www.w3.org/2000/svg" height="44" id="screenshot-d5dc8a02-425f-11ed-a456-3de3b59e4b74" viewBox="-217 906 45 44" style="-webkit-print-color-adjust: exact;" fill="none" version="1.1"><g id="shape-d5dc8a02-425f-11ed-a456-3de3b59e4b74"><g class="fills" id="fills-d5dc8a02-425f-11ed-a456-3de3b59e4b74"><path rx="0" ry="0" d="M-175.617,906.000L-213.383,906.000C-215.380,906.000,-217.000,907.580,-217.000,909.540L-217.000,946.460C-217.000,948.420,-215.380,950.000,-213.383,950.000L-175.617,950.000C-173.620,950.000,-172.000,948.420,-172.000,946.460L-172.000,909.540C-172.000,907.580,-173.620,906.000,-175.617,906.000ZZM-175.617,946.480C-200.805,946.470,-213.400,946.470,-213.400,946.460C-213.394,921.830,-213.389,909.520,-213.383,909.520C-188.194,909.530,-175.600,909.530,-175.600,909.540C-175.606,934.170,-175.611,946.480,-175.617,946.480ZZM-210.329,922.490L-203.651,922.490L-203.651,943.490L-210.329,943.490L-210.329,922.490ZZM-206.988,919.620C-204.855,919.620,-203.118,917.930,-203.118,915.840C-203.118,915.340,-203.217,914.850,-203.412,914.390C-203.606,913.930,-203.892,913.520,-204.251,913.160C-204.611,912.810,-205.036,912.530,-205.506,912.340C-205.976,912.150,-206.479,912.060,-206.988,912.060C-207.495,912.060,-207.999,912.150,-208.468,912.340C-208.938,912.530,-209.365,912.810,-209.724,913.160C-210.084,913.520,-210.368,913.930,-210.563,914.390C-210.757,914.850,-210.857,915.340,-210.857,915.840C-210.864,917.930,-209.130,919.620,-206.988,919.620ZZM-192.795,933.100C-192.795,930.370,-192.261,927.710,-188.791,927.710C-185.370,927.710,-185.320,930.840,-185.320,933.280L-185.320,943.490L-178.648,943.490L-178.648,931.980C-178.648,926.320,-179.897,921.970,-186.653,921.970C-189.898,921.970,-192.076,923.720,-192.969,925.370L-193.060,925.370L-193.060,922.490L-199.467,922.490L-199.467,943.490L-192.795,943.490L-192.795,933.100ZZ" style="fill: rgb(17, 17, 17);"/></g></g></svg>