<svg xmlns:xlink="http://www.w3.org/1999/xlink" width="95" xmlns="http://www.w3.org/2000/svg" height="71" id="screenshot-671263a7-40da-11ed-bfd9-97f122658f79" viewBox="-210 465 95 71" style="-webkit-print-color-adjust: exact;" fill="none" version="1.1"><g id="shape-671263a7-40da-11ed-bfd9-97f122658f79"><g class="fills" id="fills-671263a7-40da-11ed-bfd9-97f122658f79"><path rx="0" ry="0" d="M-121.519,465.000L-203.481,465.000C-205.209,465.000,-206.868,465.610,-208.091,466.690C-209.314,467.780,-210.000,469.250,-210.000,470.780L-210.000,530.220C-210.000,531.750,-209.314,533.220,-208.091,534.310C-206.868,535.390,-205.209,536.000,-203.481,536.000L-197.240,536.000C-196.714,536.000,-196.199,535.870,-195.755,535.620C-195.310,535.370,-194.953,535.020,-194.725,534.600C-192.840,531.060,-189.860,528.080,-186.134,525.980C-182.407,523.890,-178.087,522.780,-173.676,522.780C-169.265,522.780,-164.945,523.890,-161.219,525.980C-157.493,528.080,-154.513,531.060,-152.627,534.600C-152.399,535.020,-152.043,535.370,-151.598,535.620C-151.153,535.870,-150.638,536.000,-150.113,536.000L-121.519,536.000C-119.791,536.000,-118.132,535.390,-116.909,534.310C-115.686,533.220,-115.000,531.750,-115.000,530.220L-115.000,470.780C-115.000,469.250,-115.686,467.780,-116.909,466.690C-118.132,465.610,-119.791,465.000,-121.519,465.000ZZM-185.784,507.100C-185.784,504.980,-185.074,502.910,-183.744,501.140C-182.413,499.380,-180.522,498.000,-178.310,497.190C-176.097,496.380,-173.663,496.160,-171.315,496.580C-168.966,496.990,-166.809,498.010,-165.115,499.520C-163.421,501.020,-162.268,502.930,-161.801,505.010C-161.334,507.090,-161.573,509.250,-162.490,511.210C-163.407,513.170,-164.959,514.850,-166.950,516.030C-168.941,517.210,-171.282,517.840,-173.676,517.840C-176.884,517.830,-179.957,516.690,-182.224,514.680C-184.492,512.670,-185.772,509.950,-185.784,507.100ZZM-120.589,530.220C-120.589,530.440,-120.687,530.650,-120.861,530.800C-121.036,530.960,-121.273,531.050,-121.519,531.050L-148.390,531.050C-151.650,525.860,-156.833,521.840,-163.059,519.650C-160.087,517.680,-157.893,514.920,-156.786,511.780C-155.678,508.640,-155.714,505.270,-156.889,502.140C-158.063,499.020,-160.316,496.300,-163.329,494.380C-166.343,492.450,-169.962,491.420,-173.676,491.420C-177.390,491.420,-181.011,492.450,-184.023,494.380C-187.037,496.300,-189.290,499.020,-190.465,502.140C-191.638,505.270,-191.675,508.640,-190.568,511.780C-189.461,514.920,-187.265,517.680,-184.294,519.650C-190.521,521.840,-195.703,525.860,-198.964,531.050L-203.481,531.050C-203.724,531.040,-203.954,530.950,-204.126,530.790C-204.299,530.640,-204.400,530.440,-204.411,530.220L-204.411,470.780C-204.411,470.560,-204.313,470.350,-204.139,470.200C-203.964,470.040,-203.727,469.950,-203.481,469.950L-121.519,469.950C-121.273,469.950,-121.036,470.040,-120.861,470.200C-120.687,470.350,-120.589,470.560,-120.589,470.780L-120.589,530.220ZZM-129.902,480.690L-129.902,520.310C-129.902,520.970,-130.196,521.600,-130.720,522.070C-131.244,522.530,-131.955,522.790,-132.697,522.790L-140.147,522.790C-140.888,522.790,-141.599,522.530,-142.123,522.070C-142.647,521.600,-142.941,520.970,-142.941,520.310C-142.941,519.660,-142.647,519.030,-142.123,518.560C-141.599,518.100,-140.888,517.840,-140.147,517.840L-135.490,517.840L-135.490,483.160L-189.510,483.160L-189.510,487.290C-189.510,487.950,-189.804,488.580,-190.328,489.040C-190.852,489.510,-191.563,489.770,-192.303,489.770C-193.045,489.770,-193.756,489.510,-194.280,489.040C-194.804,488.580,-195.098,487.950,-195.098,487.290L-195.098,480.690C-195.098,480.030,-194.804,479.400,-194.280,478.930C-193.756,478.470,-193.045,478.210,-192.303,478.210L-132.697,478.210C-131.955,478.210,-131.244,478.470,-130.720,478.930C-130.196,479.400,-129.902,480.030,-129.902,480.690ZZ" style="fill: rgb(255, 199, 0);"/></g></g></svg>