<svg xmlns:xlink="http://www.w3.org/1999/xlink" width="79.334" xmlns="http://www.w3.org/2000/svg" height="82.35" id="screenshot-4373c402-40d7-11ed-bfd9-97f122658f79" viewBox="-524.667 63.86 79.334 82.35" style="-webkit-print-color-adjust: exact;" fill="none" version="1.1"><g id="shape-4373c402-40d7-11ed-bfd9-97f122658f79"><g class="fills" id="fills-4373c402-40d7-11ed-bfd9-97f122658f79"><path rx="0" ry="0" d="M-446.314,98.780L-455.182,96.030C-455.795,93.810,-456.638,91.670,-457.697,89.640L-453.356,81.210C-453.193,80.890,-453.133,80.530,-453.186,80.170C-453.238,79.820,-453.400,79.490,-453.647,79.240L-459.973,72.650C-460.217,72.390,-460.535,72.220,-460.878,72.170C-461.221,72.120,-461.572,72.180,-461.879,72.350L-469.952,76.820C-471.931,75.670,-474.026,74.750,-476.199,74.080L-478.847,64.990C-478.958,64.660,-479.170,64.370,-479.451,64.160C-479.731,63.960,-480.067,63.860,-480.408,63.860L-489.355,63.860C-489.699,63.870,-490.033,63.980,-490.309,64.190C-490.585,64.410,-490.789,64.700,-490.891,65.040L-493.538,74.100C-495.729,74.770,-497.842,75.690,-499.837,76.850L-507.779,72.400C-508.085,72.230,-508.436,72.170,-508.780,72.220C-509.123,72.280,-509.440,72.450,-509.684,72.700L-516.117,79.210C-516.364,79.460,-516.526,79.790,-516.578,80.150C-516.630,80.500,-516.571,80.870,-516.408,81.180L-512.120,89.420C-513.231,91.480,-514.119,93.660,-514.767,95.920L-523.528,98.670C-523.857,98.770,-524.144,98.980,-524.349,99.270C-524.554,99.560,-524.665,99.900,-524.667,100.260L-524.667,109.540C-524.665,109.890,-524.554,110.240,-524.349,110.530C-524.144,110.810,-523.857,111.020,-523.528,111.130L-514.714,113.870C-514.059,116.100,-513.171,118.240,-512.067,120.270L-516.408,128.890C-516.571,129.210,-516.630,129.570,-516.578,129.930C-516.526,130.280,-516.364,130.610,-516.117,130.860L-509.790,137.420C-509.546,137.680,-509.229,137.850,-508.886,137.900C-508.542,137.960,-508.191,137.900,-507.884,137.730L-499.705,133.200C-497.770,134.280,-495.729,135.150,-493.617,135.780L-490.970,145.030C-490.868,145.370,-490.665,145.670,-490.389,145.880C-490.113,146.090,-489.778,146.210,-489.435,146.210L-480.488,146.210C-480.144,146.210,-479.810,146.090,-479.534,145.880C-479.257,145.670,-479.054,145.370,-478.952,145.030L-476.305,135.750C-474.211,135.110,-472.188,134.250,-470.270,133.170L-462.038,137.730C-461.731,137.900,-461.380,137.960,-461.037,137.900C-460.693,137.850,-460.376,137.680,-460.132,137.420L-453.806,130.860C-453.559,130.610,-453.397,130.280,-453.344,129.930C-453.292,129.570,-453.352,129.210,-453.514,128.890L-457.908,120.380C-456.857,118.380,-456.014,116.280,-455.394,114.090L-446.473,111.350C-446.145,111.240,-445.857,111.030,-445.653,110.750C-445.448,110.460,-445.337,110.110,-445.335,109.760L-445.335,100.400C-445.319,100.060,-445.405,99.720,-445.580,99.430C-445.755,99.140,-446.011,98.910,-446.314,98.780ZZM-484.882,120.130C-487.761,120.130,-490.576,119.250,-492.970,117.590C-495.364,115.930,-497.230,113.570,-498.332,110.810C-499.434,108.050,-499.722,105.020,-499.161,102.090C-498.599,99.160,-497.212,96.470,-495.176,94.360C-493.140,92.250,-490.546,90.810,-487.722,90.230C-484.898,89.650,-481.971,89.950,-479.310,91.090C-476.650,92.230,-474.376,94.170,-472.777,96.650C-471.177,99.130,-470.323,102.050,-470.323,105.040C-470.323,109.040,-471.857,112.880,-474.587,115.710C-477.317,118.540,-481.021,120.130,-484.882,120.130ZZ" style="fill: rgb(255, 203, 5);"/></g></g></svg>