<svg xmlns:xlink="http://www.w3.org/1999/xlink" width="87" xmlns="http://www.w3.org/2000/svg" height="68" id="screenshot-b14e8f31-40d9-11ed-bfd9-97f122658f79" viewBox="-529 469 87 68" style="-webkit-print-color-adjust: exact;" fill="none" version="1.1"><g id="shape-b14e8f31-40d9-11ed-bfd9-97f122658f79"><g class="fills" id="fills-b14e8f31-40d9-11ed-bfd9-97f122658f79"><path rx="0" ry="0" d="M-462.654,494.500L-483.319,494.500L-483.319,501.940C-483.319,507.210,-487.710,511.500,-493.104,511.500C-498.508,511.500,-502.899,507.210,-502.899,501.940L-502.899,485.790L-511.722,490.970C-514.342,492.490,-515.949,495.270,-515.949,498.240L-515.949,504.530L-526.819,510.660C-528.896,511.830,-529.623,514.440,-528.415,516.470L-517.535,534.881C-516.338,536.911,-513.677,537.601,-511.599,536.431L-497.536,528.501L-478.969,528.501C-474.169,528.501,-470.269,524.690,-470.269,520.000L-468.099,520.000C-465.694,520.000,-463.749,518.100,-463.749,515.750L-463.749,507.250L-462.654,507.250C-460.853,507.250,-459.399,505.830,-459.399,504.060L-459.399,497.690C-459.399,495.920,-460.853,494.500,-462.654,494.500ZZM-442.583,489.530L-453.453,471.119C-454.650,469.089,-457.321,468.399,-459.399,469.569L-473.452,477.499L-487.341,477.499C-488.979,477.499,-490.565,477.950,-491.957,478.790L-496.502,481.560C-497.781,482.330,-498.549,483.700,-498.549,485.160L-498.549,501.940C-498.549,504.870,-496.113,507.250,-493.104,507.250C-490.105,507.250,-487.669,504.870,-487.669,501.940L-487.669,490.250L-462.654,490.250C-458.458,490.250,-455.049,493.580,-455.049,497.690L-455.049,501.470L-444.169,495.340C-442.091,494.150,-441.385,491.560,-442.583,489.530ZZ" style="fill: rgb(255, 199, 0);"/></g></g></svg>