<svg xmlns:xlink="http://www.w3.org/1999/xlink" width="54" xmlns="http://www.w3.org/2000/svg" height="39" id="screenshot-d5dcff32-425f-11ed-a456-3de3b59e4b74" viewBox="-436 906 54 39" style="-webkit-print-color-adjust: exact;" fill="none" version="1.1"><g id="shape-d5dcff32-425f-11ed-a456-3de3b59e4b74"><g class="fills" id="fills-d5dcff32-425f-11ed-a456-3de3b59e4b74"><path rx="0" ry="0" d="M-382.000,910.624C-383.986,911.409,-386.119,911.937,-388.362,912.175C-386.048,910.942,-384.317,909.013,-383.492,906.726C-385.666,907.879,-388.045,908.685,-390.526,909.112C-392.194,907.531,-394.405,906.487,-396.813,906.129C-399.222,905.781,-401.694,906.139,-403.846,907.163C-405.998,908.188,-407.709,909.818,-408.714,911.797C-409.719,913.766,-409.962,915.984,-409.405,918.092C-413.809,917.903,-418.119,916.879,-422.053,915.109C-425.987,913.339,-429.458,910.853,-432.240,907.810C-433.191,909.272,-433.739,910.962,-433.739,912.762C-433.740,914.383,-433.290,915.974,-432.431,917.406C-431.571,918.838,-430.328,920.051,-428.811,920.956C-430.570,920.906,-432.290,920.478,-433.829,919.723L-433.829,919.852C-433.829,922.119,-432.944,924.327,-431.324,926.087C-429.704,927.847,-427.449,929.050,-424.941,929.497C-426.574,929.895,-428.285,929.955,-429.946,929.666C-429.238,931.625,-427.859,933.336,-426.004,934.559C-424.148,935.782,-421.907,936.468,-419.595,936.508C-423.520,939.242,-428.366,940.724,-433.356,940.714C-434.240,940.724,-435.123,940.674,-436.000,940.585C-430.936,943.479,-425.040,945.010,-419.020,945.000C-398.638,945.000,-387.496,930.005,-387.496,916.998C-387.496,916.570,-387.508,916.153,-387.530,915.725C-385.363,914.333,-383.492,912.613,-382.000,910.624ZL-382.000,910.624ZZ" style="fill: rgb(0, 0, 0);"/></g></g></svg>